REM MD5 419bb6e98ecace3fb2e7f567233d3ccf
FILE "Kamen Rider (Japan).bin" BINARY
  TRACK 01 MODE2/2352
    INDEX 01 00:00:00
  TRACK 02 AUDIO
    INDEX 00 12:59:17
    INDEX 01 13:01:17
  TRACK 03 AUDIO
    INDEX 00 15:20:26
    INDEX 01 15:22:26
  TRACK 04 AUDIO
    INDEX 00 16:38:24
    INDEX 01 16:40:24
  TRACK 05 AUDIO
    INDEX 00 16:49:26
    INDEX 01 16:51:26
  TRACK 06 AUDIO
    INDEX 00 17:35:39
    INDEX 01 17:37:39
  TRACK 07 AUDIO
    INDEX 00 18:52:48
    INDEX 01 18:54:48
  TRACK 08 AUDIO
    INDEX 00 20:15:56
    INDEX 01 20:17:56
  TRACK 09 AUDIO
    INDEX 00 21:51:62
    INDEX 01 21:53:62
  TRACK 10 AUDIO
    INDEX 00 22:10:53
    INDEX 01 22:12:53
  TRACK 11 AUDIO
    INDEX 00 22:27:40
    INDEX 01 22:29:40
  TRACK 12 AUDIO
    INDEX 00 23:54:67
    INDEX 01 23:56:67
  TRACK 13 AUDIO
    INDEX 00 25:28:12
    INDEX 01 25:30:12
  TRACK 14 AUDIO
    INDEX 00 27:11:69
    INDEX 01 27:13:69
  TRACK 15 AUDIO
    INDEX 00 28:36:71
    INDEX 01 28:38:71
  TRACK 16 AUDIO
    INDEX 00 29:39:18
    INDEX 01 29:41:18
  TRACK 17 AUDIO
    INDEX 00 30:57:18
    INDEX 01 30:59:18
  TRACK 18 AUDIO
    INDEX 00 32:01:71
    INDEX 01 32:03:71
  TRACK 19 AUDIO
    INDEX 00 33:31:58
    INDEX 01 33:33:58
  TRACK 20 AUDIO
    INDEX 00 34:44:42
    INDEX 01 34:46:42
  TRACK 21 AUDIO
    INDEX 00 35:46:73
    INDEX 01 35:48:73
  TRACK 22 AUDIO
    INDEX 00 38:16:21
    INDEX 01 38:18:21
  TRACK 23 AUDIO
    INDEX 00 40:48:55
    INDEX 01 40:50:55
  TRACK 24 AUDIO
    INDEX 00 42:08:26
    INDEX 01 42:10:26
  TRACK 25 AUDIO
    INDEX 00 42:14:39
    INDEX 01 42:16:39
  TRACK 26 AUDIO
    INDEX 00 42:33:17
    INDEX 01 42:35:17
  TRACK 27 AUDIO
    INDEX 00 42:52:65
    INDEX 01 42:54:65
  TRACK 28 AUDIO
    INDEX 00 43:11:52
    INDEX 01 43:13:52
  TRACK 29 AUDIO
    INDEX 00 43:32:42
    INDEX 01 43:34:42
  TRACK 30 AUDIO
    INDEX 00 43:53:05
    INDEX 01 43:55:05
  TRACK 31 AUDIO
    INDEX 00 44:11:71
    INDEX 01 44:13:71
  TRACK 32 AUDIO
    INDEX 00 44:32:62
    INDEX 01 44:34:62
  TRACK 33 AUDIO
    INDEX 00 44:52:29
    INDEX 01 44:54:29
  TRACK 34 AUDIO
    INDEX 00 45:11:20
    INDEX 01 45:13:20
  TRACK 35 AUDIO
    INDEX 00 45:32:11
    INDEX 01 45:34:11
  TRACK 36 AUDIO
    INDEX 00 45:51:50
    INDEX 01 45:53:50
  TRACK 37 AUDIO
    INDEX 00 46:10:41
    INDEX 01 46:12:41
  TRACK 38 AUDIO
    INDEX 00 46:31:33
    INDEX 01 46:33:33
  TRACK 39 AUDIO
    INDEX 00 46:51:00
    INDEX 01 46:53:00
  TRACK 40 AUDIO
    INDEX 00 47:09:66
    INDEX 01 47:11:66
  TRACK 41 AUDIO
    INDEX 00 47:30:57
    INDEX 01 47:32:57
  TRACK 42 AUDIO
    INDEX 00 47:50:26
    INDEX 01 47:52:26
  TRACK 43 AUDIO
    INDEX 00 48:09:17
    INDEX 01 48:11:17
  TRACK 44 AUDIO
    INDEX 00 48:30:09
    INDEX 01 48:32:09
  TRACK 45 AUDIO
    INDEX 00 48:49:42
    INDEX 01 48:51:42
  TRACK 46 AUDIO
    INDEX 00 49:08:33
    INDEX 01 49:10:33
  TRACK 47 AUDIO
    INDEX 00 49:29:25
    INDEX 01 49:31:25
  TRACK 48 AUDIO
    INDEX 00 49:48:57
    INDEX 01 49:50:57
  TRACK 49 AUDIO
    INDEX 00 50:07:48
    INDEX 01 50:09:48
  TRACK 50 AUDIO
    INDEX 00 50:28:39
    INDEX 01 50:30:39
  TRACK 51 AUDIO
    INDEX 00 50:45:26
    INDEX 01 50:47:26
  TRACK 52 AUDIO
    INDEX 00 51:02:13
    INDEX 01 51:04:13
  TRACK 53 AUDIO
    INDEX 00 51:19:00
    INDEX 01 51:21:00
  TRACK 54 AUDIO
    INDEX 00 51:35:62
    INDEX 01 51:37:62
  TRACK 55 AUDIO
    INDEX 00 51:52:49
    INDEX 01 51:54:49
  TRACK 56 AUDIO
    INDEX 00 52:09:36
    INDEX 01 52:11:36
  TRACK 57 AUDIO
    INDEX 00 52:26:23
    INDEX 01 52:28:23
  TRACK 58 AUDIO
    INDEX 00 52:43:10
    INDEX 01 52:45:10
  TRACK 59 AUDIO
    INDEX 00 52:59:72
    INDEX 01 53:01:72
  TRACK 60 AUDIO
    INDEX 00 53:07:55
    INDEX 01 53:09:55
  TRACK 61 AUDIO
    INDEX 00 53:55:60
    INDEX 01 53:57:60
  TRACK 62 AUDIO
    INDEX 00 54:12:43
    INDEX 01 54:14:43
  TRACK 63 AUDIO
    INDEX 00 54:29:30
    INDEX 01 54:31:30
  TRACK 64 AUDIO
    INDEX 00 54:46:17
    INDEX 01 54:48:17
  TRACK 65 AUDIO
    INDEX 00 55:03:04
    INDEX 01 55:05:04
  TRACK 66 AUDIO
    INDEX 00 55:19:66
    INDEX 01 55:21:66
  TRACK 67 AUDIO
    INDEX 00 55:36:48
    INDEX 01 55:38:48
  TRACK 68 AUDIO
    INDEX 00 55:53:35
    INDEX 01 55:55:35
  TRACK 69 AUDIO
    INDEX 00 56:10:22
    INDEX 01 56:12:22
  TRACK 70 AUDIO
    INDEX 00 56:27:09
    INDEX 01 56:29:09
  TRACK 71 AUDIO
    INDEX 00 57:02:45
    INDEX 01 57:04:45
  TRACK 72 AUDIO
    INDEX 00 57:15:48
    INDEX 01 57:17:48
  TRACK 73 AUDIO
    INDEX 00 57:45:59
    INDEX 01 57:47:59
  TRACK 74 AUDIO
    INDEX 00 58:20:46
    INDEX 01 58:22:46
  TRACK 75 AUDIO
    INDEX 00 58:42:43
    INDEX 01 58:44:43
  TRACK 76 AUDIO
    INDEX 00 58:51:42
    INDEX 01 58:53:42
  TRACK 77 AUDIO
    INDEX 00 59:01:24
    INDEX 01 59:03:24
  TRACK 78 AUDIO
    INDEX 00 59:12:62
    INDEX 01 59:14:62
  TRACK 79 AUDIO
    INDEX 00 59:22:00
    INDEX 01 59:24:00
  TRACK 80 AUDIO
    INDEX 00 59:28:00
    INDEX 01 59:30:00
REM LEADOUT 62:32:60
